# xmcd
#
# Track frame offsets: 
#        150
#        16305
#        37546
#        59769
#        86957
#        112742
#        136811
#        155176
#        183010
#        207146
#        234764
#        252405
#
# Disc length: 3689 seconds
#
# Revision: 0
# Processed by: cddbd v1.5.2PL0 Copyright (c) Steve Scherf et al.
# Submitted via: ExactAudioCopy v1.0b3
#
DISCID=920e670c
DTITLE=Ngoc Huyen - Mot Thoang Duyen Que
DYEAR=2002
DGENRE=
TTITLE0=Mot thoang duyen que
TTITLE1=Trang hon tui
TTITLE2=Dieu ho phu the
TTITLE3=Nho ve co huong
TTITLE4=Qua nhip cau tre
TTITLE5=Bong luc binh
TTITLE6=Huong trau
TTITLE7=Doi cho
TTITLE8=Chiec xuong
TTITLE9=Hoai co
TTITLE10=Thuong em chang ngai
TTITLE11=Bong mua tim
EXTD=
EXTT0=
EXTT1=
EXTT2=
EXTT3=
EXTT4=
EXTT5=
EXTT6=
EXTT7=
EXTT8=
EXTT9=
EXTT10=
EXTT11=
PLAYORDER=
